<?xml version="1.0" encoding="utf-8"?>
<!-- Generator: Adobe Illustrator 18.0.0, SVG Export Plug-In . SVG Version: 6.00 Build 0)  -->
<!DOCTYPE svg PUBLIC "-//W3C//DTD SVG 1.1//EN" "http://www.w3.org/Graphics/SVG/1.1/DTD/svg11.dtd">
<svg version="1.1" id="Layer_1" xmlns="http://www.w3.org/2000/svg" xmlns:xlink="http://www.w3.org/1999/xlink" x="0px" y="0px"
	 viewBox="0 0 111 111" enable-background="new 0 0 111 111" xml:space="preserve">
<g>
	<circle fill="#FDE480" cx="55.5" cy="55.5" r="55.5"/>
	<path fill="#F5905F" d="M30.7,68.6c-0.3,7,3,12.2,9.4,14.9c7,3,14,1.9,14,1.9V68.6H30.7z"/>
	<path fill="#FBB65D" d="M54.1,85.5c0,0,6.1,0.1,14.1-1.9c6.9-1.7,10.2-7.9,9.6-14.9H54.1V85.5z"/>
	<path fill="#F8A45E" d="M54.1,26.5c0,0-5-2-8,3c-1.9,3.1-1.6,12.7-9,23.1c-4.1,5.7-6.1,11.1-6.4,16.1h23.4V26.5z"/>
	<path fill="#FFC65E" d="M61.3,29.5c-2.2-5-7.2-3-7.2-3v42.2h23.8c-0.4-5-2.5-10.5-6.5-16.1C63.9,42.1,62.7,32.8,61.3,29.5z"/>
	<polygon fill="#F16850" points="55.1,27.6 58.1,15.5 56.1,14.6 53.1,27.6 	"/>
</g>
</svg>
