<?xml version="1.0" encoding="utf-8"?>
<!-- Generator: Adobe Illustrator 18.0.0, SVG Export Plug-In . SVG Version: 6.00 Build 0)  -->
<!DOCTYPE svg PUBLIC "-//W3C//DTD SVG 1.1//EN" "http://www.w3.org/Graphics/SVG/1.1/DTD/svg11.dtd">
<svg version="1.1" id="Layer_1" xmlns="http://www.w3.org/2000/svg" xmlns:xlink="http://www.w3.org/1999/xlink" x="0px" y="0px"
	 viewBox="0 0 111 111" enable-background="new 0 0 111 111" xml:space="preserve">
<g>
	<circle fill="#FDE480" cx="55.5" cy="55.5" r="55.5"/>
	<polygon fill="#FCF9D5" points="35.9,41.8 32.8,39.7 28.8,35.6 26.1,31.3 23.4,30.4 22,32.6 22.3,35.6 20.3,36.5 19.2,38.7 
		20.9,40.7 25.8,40.3 28.1,41.2 33.5,44.8 	"/>
	<path fill="#FBB65D" d="M54.5,81.6c4,4.1,6.8,5.5,6.8,5.5s2.9,1.7,5.1,2.1l17.5-25.6H54.5V81.6z"/>
	<path fill="#F8A45E" d="M42.6,63.6C42.6,63.6,42.6,63.6,42.6,63.6c4.1,8.7,8.5,14.4,12,18v-18H42.6z"/>
	<path fill="#FFC65E" d="M85.5,50.3c0,0-8.5-7.1-29-7.7c0,0-0.8-0.1-2-0.2v21.3h29.4l6.1-9C88.8,52.8,85.5,50.3,85.5,50.3z"/>
	<path fill="#FBB65D" d="M54.5,42.3c-3.1-0.4-9.2-1.2-13.2-2.8c-5.7-2.2-7.4-0.9-8.1,0.4L31,43.1c-0.9,1.3-1.5,3.4,2.8,7.7
		c4.1,4.2,8.4,11.8,8.7,12.8h12V42.3z"/>
	<path fill="#F37C5E" d="M88.5,52.9c-5.2-3.7-15,1.1-22,10.8c-6.8,9.4-8.3,20-3.6,23.9l27.2-33C89.7,53.9,89.2,53.4,88.5,52.9z"/>
	<path fill="#F16850" d="M85.3,77.2c6.1-8.5,8-17.9,4.9-22.6L63,87.6c0.1,0.1,0.2,0.2,0.4,0.3C68.5,91.7,78.3,86.8,85.3,77.2z"/>
	
		<ellipse transform="matrix(0.8116 0.5843 -0.5843 0.8116 56.0821 -30.8395)" fill="#FCF9D5" cx="75.9" cy="71.5" rx="1.7" ry="3.2"/>
</g>
</svg>
