<?xml version="1.0" encoding="utf-8"?>
<!-- Generator: Adobe Illustrator 18.0.0, SVG Export Plug-In . SVG Version: 6.00 Build 0)  -->
<!DOCTYPE svg PUBLIC "-//W3C//DTD SVG 1.1//EN" "http://www.w3.org/Graphics/SVG/1.1/DTD/svg11.dtd">
<svg version="1.1" id="Layer_1" xmlns="http://www.w3.org/2000/svg" xmlns:xlink="http://www.w3.org/1999/xlink" x="0px" y="0px"
	 viewBox="0 0 111 111" enable-background="new 0 0 111 111" xml:space="preserve">
<g>
	<circle fill="#FDE480" cx="55.5" cy="55.5" r="55.5"/>
	<path fill="#F5905F" d="M35.5,55.6c-0.3,20,19.5,30,19.5,30h0.5v-30H35.5z"/>
	<path fill="#FBB65D" d="M55.5,85.6H56c0,0,19.8-10,19.5-30h-20V85.6z"/>
	<path fill="#F8A45E" d="M55.5,23.6H55c0,0-18.5,10-19.5,31c0,0.3,0,1,0,1h20.1V23.6z"/>
	<path fill="#FFC65E" d="M56,23.6h-0.5v32h20c0,0,0-0.7,0-1C74.5,33.6,56,23.6,56,23.6z"/>
	<polygon fill="#F16850" points="57.5,93.6 53.5,93.6 54.5,84.6 56.5,84.6 	"/>
</g>
</svg>
